<svg width="292" height="29" viewBox="0 0 292 29" fill="none" xmlns="http://www.w3.org/2000/svg">
<path d="M7.81202 4.8399e-05H28.8V2.41205H7.81202C6.32403 2.41205 5.05203 2.94005 3.99602 3.99605C2.94002 5.05205 2.41202 6.32405 2.41202 7.81205C2.41202 9.30005 2.94002 10.572 3.99602 11.628C5.05203 12.66 6.32403 13.176 7.81202 13.176H20.988C23.148 13.176 24.984 13.944 26.496 15.48C28.032 16.992 28.8 18.828 28.8 20.988C28.8 23.148 28.032 24.996 26.496 26.532C24.984 28.044 23.148 28.8 20.988 28.8H2.44677e-05V26.388H20.988C22.476 26.388 23.748 25.86 24.804 24.804C25.86 23.748 26.388 22.476 26.388 20.988C26.388 19.5 25.86 18.24 24.804 17.208C23.748 16.152 22.476 15.624 20.988 15.624H7.81202C5.65202 15.624 3.80402 14.868 2.26802 13.356C0.756024 11.82 2.44677e-05 9.97205 2.44677e-05 7.81205C2.44677e-05 5.65205 0.756024 3.81605 2.26802 2.30405C3.80402 0.768048 5.65202 4.8399e-05 7.81202 4.8399e-05ZM61.056 4.8399e-05H64.8L47.7 14.4L64.8 28.8H61.056L45.792 15.984L38.412 22.212V28.8H36V24.228V21.06V4.8399e-05H38.412V19.044L61.056 4.8399e-05ZM98.388 1.22405V4.8399e-05H100.8V1.22405C100.8 3.69605 100.212 6.00005 99.036 8.13605C97.884 10.248 96.3 11.964 94.284 13.284C92.268 14.604 90.048 15.36 87.624 15.552V28.8H85.176V15.552C82.752 15.36 80.532 14.604 78.516 13.284C76.5 11.964 74.904 10.248 73.728 8.13605C72.576 6.00005 72 3.69605 72 1.22405V4.8399e-05H74.412V1.22405C74.412 3.38405 74.94 5.38805 75.996 7.23605C77.076 9.06005 78.54 10.512 80.388 11.592C82.236 12.648 84.24 13.176 86.4 13.176C88.56 13.176 90.564 12.648 92.412 11.592C94.26 10.512 95.712 9.06005 96.768 7.23605C97.848 5.38805 98.388 3.38405 98.388 1.22405ZM122.414 28.8L138.614 4.8399e-05L154.778 28.8H151.826L138.614 5.22005L125.366 28.8H122.414ZM151.523 2.41205V4.8399e-05H180.323V2.41205H167.147V28.8H164.699V2.41205H151.523ZM208.511 26.388H214.163H216.323V28.8H208.511H187.523V26.928V26.388V4.8399e-05H189.935V26.388H208.511ZM223.523 28.8L239.723 4.8399e-05L255.887 28.8H252.935L239.723 5.22005L226.475 28.8H223.523ZM270.886 4.8399e-05H291.874V2.41205H270.886C269.398 2.41205 268.126 2.94005 267.07 3.99605C266.014 5.05205 265.486 6.32405 265.486 7.81205C265.486 9.30005 266.014 10.572 267.07 11.628C268.126 12.66 269.398 13.176 270.886 13.176H284.062C286.222 13.176 288.058 13.944 289.57 15.48C291.106 16.992 291.874 18.828 291.874 20.988C291.874 23.148 291.106 24.996 289.57 26.532C288.058 28.044 286.222 28.8 284.062 28.8H263.074V26.388H284.062C285.55 26.388 286.822 25.86 287.878 24.804C288.934 23.748 289.462 22.476 289.462 20.988C289.462 19.5 288.934 18.24 287.878 17.208C286.822 16.152 285.55 15.624 284.062 15.624H270.886C268.726 15.624 266.878 14.868 265.342 13.356C263.83 11.82 263.074 9.97205 263.074 7.81205C263.074 5.65205 263.83 3.81605 265.342 2.30405C266.878 0.768048 268.726 4.8399e-05 270.886 4.8399e-05Z" fill="white"/>
</svg>
